<?xml version="1.0" encoding="UTF-8"?>
<svg width="99px" height="32px" viewBox="0 0 99 32" version="1.1" xmlns="http://www.w3.org/2000/svg" xmlns:xlink="http://www.w3.org/1999/xlink">
    <!-- Generator: Sketch 44.1 (41455) - http://www.bohemiancoding.com/sketch -->
    <title>Group 6</title>
    <desc>Created with Sketch.</desc>
    <defs></defs>
    <g id="Symbols" stroke="none" stroke-width="1" fill="none" fill-rule="evenodd">
        <g id="Group-6" transform="translate(-17.000000, -20.000000)">
            <rect id="Rectangle-12" x="0" y="0" width="148" height="64"></rect>
            <path d="M35.4140625,22.3007812 L31.8007812,22.1640625 L31.625,22.3789062 C32.0286479,22.7825541 32.3476551,23.3326788 32.5820312,24.0292969 C32.8164074,24.7259149 32.9335938,25.4778605 32.9335938,26.2851562 C32.9335938,28.4075627 32.2793034,30.0449161 30.9707031,31.1972656 C29.6621028,32.3496151 27.8033975,32.9257812 25.3945312,32.9257812 C24.3137967,32.9257812 23.3828164,32.7890639 22.6015625,32.515625 C21.6119742,33.2708371 21.1171875,34.0130172 21.1171875,34.7421875 C21.1171875,35.2239607 21.2115876,35.5885404 21.4003906,35.8359375 C21.5891937,36.0833346 21.9016905,36.2591141 22.3378906,36.3632812 C22.7740907,36.4674484 23.4348914,36.5195312 24.3203125,36.5195312 L29.0078125,36.5195312 C30.3880277,36.5195312 31.5143186,36.7343729 32.3867188,37.1640625 C33.2591189,37.5937521 33.8808575,38.1699183 34.2519531,38.8925781 C34.6230487,39.615238 34.8085938,40.4583285 34.8085938,41.421875 C34.8085938,42.6458395 34.4570348,43.7363233 33.7539062,44.6933594 C33.0507777,45.6503954 32.0351629,46.3958307 30.7070312,46.9296875 C29.3788996,47.4635443 27.8294359,47.7304688 26.0585938,47.7304688 C24.743483,47.7304688 23.5423231,47.6523445 22.4550781,47.4960938 C21.3678331,47.339843 20.4368528,47.0761737 19.6621094,46.7050781 C18.8873659,46.3339825 18.2884136,45.8457062 17.8652344,45.2402344 C17.4420552,44.6347626 17.2304688,43.8763066 17.2304688,42.9648438 C17.2304688,42.1445271 17.5039035,41.3990919 18.0507812,40.7285156 C18.597659,40.0579394 19.3723908,39.4687525 20.375,38.9609375 C19.7630178,38.7135404 19.2812518,38.3489607 18.9296875,37.8671875 C18.5781232,37.3854143 18.4023438,36.8190137 18.4023438,36.1679688 C18.4023438,35.4257775 18.610675,34.7454458 19.0273438,34.1269531 C19.4440125,33.5084604 20.1796822,32.8020873 21.234375,32.0078125 C20.2968703,31.4609348 19.5839868,30.7187547 19.0957031,29.78125 C18.6074194,28.8437453 18.3632812,27.7760477 18.3632812,26.578125 C18.3632812,25.4583277 18.5488263,24.4850302 18.9199219,23.6582031 C19.2910175,22.8313761 19.8053353,22.1477892 20.4628906,21.6074219 C21.120446,21.0670546 21.898433,20.6634128 22.796875,20.3964844 C23.695317,20.129556 24.6653594,19.9960938 25.7070312,19.9960938 C26.6445359,19.9960938 27.5755162,20.1067697 28.5,20.328125 L35.4140625,20.328125 L35.4140625,22.3007812 Z M21.859375,26.265625 C21.859375,27.8932373 22.1914029,29.1497352 22.8554688,30.0351562 C23.5195346,30.9205773 24.4765562,31.3632812 25.7265625,31.3632812 C26.3906283,31.3632812 26.9570289,31.2363294 27.4257812,30.9824219 C27.8945336,30.7285144 28.2753892,30.3802105 28.5683594,29.9375 C28.8613296,29.4947895 29.0761712,28.9837269 29.2128906,28.4042969 C29.3496101,27.8248669 29.4179688,27.216149 29.4179688,26.578125 C29.4179688,25.4322859 29.25521,24.4752643 28.9296875,23.7070312 C28.604165,22.9387982 28.1614611,22.3756528 27.6015625,22.0175781 C27.0416639,21.6595034 26.3971391,21.4804688 25.6679688,21.4804688 C24.4309834,21.4804688 23.4869824,21.8906209 22.8359375,22.7109375 C22.1848926,23.5312541 21.859375,24.7161381 21.859375,26.265625 Z M22.3476562,39.3125 C21.6835904,39.8072941 21.1855485,40.3313774 20.8535156,40.8847656 C20.5214827,41.4381538 20.3554688,42.0664027 20.3554688,42.7695312 C20.3554688,43.9414121 20.8209589,44.8040337 21.7519531,45.3574219 C22.6829474,45.9108101 24.1054592,46.1875 26.0195312,46.1875 C27.1914121,46.1875 28.1972614,46.0312516 29.0371094,45.71875 C29.8769573,45.4062484 30.518227,44.9570342 30.9609375,44.3710938 C31.403648,43.7851533 31.625,43.1015664 31.625,42.3203125 C31.625,41.9557273 31.5794275,41.6009132 31.4882812,41.2558594 C31.397135,40.9108056 31.2246106,40.6015639 30.9707031,40.328125 C30.7167956,40.0546861 30.3554711,39.8365894 29.8867188,39.6738281 C29.4179664,39.5110669 28.8059934,39.4296875 28.0507812,39.4296875 L25.140625,39.4296875 C24.0859322,39.4296875 23.154952,39.3906254 22.3476562,39.3125 Z M46.15625,39.3125 C43.4479031,39.3125 41.3808665,38.5149819 39.9550781,36.9199219 C38.5292897,35.3248618 37.8164062,32.9648594 37.8164062,29.8398438 C37.8164062,27.6913955 38.1907515,25.8750074 38.9394531,24.390625 C39.6881548,22.9062426 40.7135352,21.802738 42.015625,21.0800781 C43.3177148,20.3574183 44.802075,19.9960938 46.46875,19.9960938 C49.2552223,19.9960938 51.3645762,20.8066325 52.796875,22.4277344 C54.2291738,24.0488362 54.9453125,26.3762869 54.9453125,29.4101562 C54.9453125,31.5716254 54.5872432,33.3945238 53.8710938,34.8789062 C53.1549443,36.3632887 52.1393295,37.4733036 50.8242188,38.2089844 C49.509108,38.9446651 47.953134,39.3125 46.15625,39.3125 Z M41.5078125,29.4296875 C41.5078125,32.1119926 41.9342405,34.1725188 42.7871094,35.6113281 C43.6399782,37.0501374 44.8606691,37.7695312 46.4492188,37.7695312 C47.3216189,37.7695312 48.063799,37.5579448 48.6757812,37.1347656 C49.2877635,36.7115864 49.7858054,36.1419307 50.1699219,35.4257812 C50.5540384,34.7096318 50.8307283,33.879562 51,32.9355469 C51.1692717,31.9915317 51.2539062,31.0052135 51.2539062,29.9765625 C51.2539062,28.0624904 51.0423198,26.4739646 50.6191406,25.2109375 C50.1959614,23.9479104 49.6197953,23.0201853 48.890625,22.4277344 C48.1614547,21.8352835 47.3281297,21.5390625 46.390625,21.5390625 C44.8150963,21.5390625 43.6074261,22.2226494 42.7675781,23.5898438 C41.9277302,24.9570381 41.5078125,26.9036332 41.5078125,29.4296875 Z M67.3867188,39.3125 C64.6783719,39.3125 62.6113353,38.5149819 61.1855469,36.9199219 C59.7597585,35.3248618 59.046875,32.9648594 59.046875,29.8398438 C59.046875,27.6913955 59.4212202,25.8750074 60.1699219,24.390625 C60.9186235,22.9062426 61.9440039,21.802738 63.2460938,21.0800781 C64.5481836,20.3574183 66.0325437,19.9960938 67.6992188,19.9960938 C70.485691,19.9960938 72.5950449,20.8066325 74.0273438,22.4277344 C75.4596426,24.0488362 76.1757812,26.3762869 76.1757812,29.4101562 C76.1757812,31.5716254 75.8177119,33.3945238 75.1015625,34.8789062 C74.3854131,36.3632887 73.3697982,37.4733036 72.0546875,38.2089844 C70.7395768,38.9446651 69.1836027,39.3125 67.3867188,39.3125 Z M62.7382812,29.4296875 C62.7382812,32.1119926 63.1647093,34.1725188 64.0175781,35.6113281 C64.870447,37.0501374 66.0911379,37.7695312 67.6796875,37.7695312 C68.5520877,37.7695312 69.2942678,37.5579448 69.90625,37.1347656 C70.5182322,36.7115864 71.0162741,36.1419307 71.4003906,35.4257812 C71.7845071,34.7096318 72.0611971,33.879562 72.2304688,32.9355469 C72.3997404,31.9915317 72.484375,31.0052135 72.484375,29.9765625 C72.484375,28.0624904 72.2727886,26.4739646 71.8496094,25.2109375 C71.4264302,23.9479104 70.8502641,23.0201853 70.1210938,22.4277344 C69.3919234,21.8352835 68.5585984,21.5390625 67.6210938,21.5390625 C66.045565,21.5390625 64.8378948,22.2226494 63.9980469,23.5898438 C63.1581989,24.9570381 62.7382812,26.9036332 62.7382812,29.4296875 Z" id="gooru" fill="#4A9846"></path>
            <path d="M85.3945312,23.5703125 L85.6679688,23.6289062 C86.3841182,22.7565061 87.048174,22.069664 87.6601562,21.5683594 C88.2721385,21.0670548 88.9329392,20.6796889 89.6425781,20.40625 C90.3522171,20.1328111 91.1562455,19.9960938 92.0546875,19.9960938 C92.8098996,19.9960938 93.4934865,20.0351559 94.1054688,20.1132812 L94.1054688,24.6054688 L91.8984375,24.6054688 C91.5859359,23.9023402 91.253908,23.3912776 90.9023438,23.0722656 C90.5507795,22.7532536 90.0690135,22.59375 89.4570312,22.59375 C88.9882789,22.59375 88.5227888,22.7304674 88.0605469,23.0039062 C87.598305,23.2773451 87.1523459,23.6744766 86.7226562,24.1953125 C86.2929666,24.7161484 85.9967456,25.2044248 85.8339844,25.6601562 C85.6712231,26.1158877 85.5898438,26.6562469 85.5898438,27.28125 L85.5898438,34.1171875 C85.5898438,35.3020893 85.6614576,36.1191384 85.8046875,36.5683594 C85.9479174,37.0175804 86.1855452,37.3463531 86.5175781,37.5546875 C86.849611,37.7630219 87.3476529,37.9257807 88.0117188,38.0429688 L88.0117188,39 L80.140625,39 L80.140625,38.0429688 C80.6354191,37.886718 80.9902333,37.7500006 81.2050781,37.6328125 C81.4199229,37.5156244 81.605468,37.3528656 81.7617188,37.1445312 C81.9179695,36.9361969 82.0351559,36.6171896 82.1132812,36.1875 C82.1914066,35.7578104 82.2304688,35.0872441 82.2304688,34.1757812 L82.2304688,25.6601562 C82.2304688,24.8268188 82.217448,24.1562525 82.1914062,23.6484375 C82.1653645,23.1406225 82.0742195,22.7337255 81.9179688,22.4277344 C81.761718,22.1217433 81.5240901,21.893881 81.2050781,21.7441406 C80.8860661,21.5944003 80.4335967,21.4674484 79.8476562,21.3632812 L79.8476562,20.3476562 L84.4179688,20.1523438 L85.609375,20.1523438 L85.3945312,23.5703125 Z" id="Path" fill="#1B72BA"></path>
            <path d="M96.1953125,20.328125 L101.761719,20.328125 L101.761719,30.2695312 C101.761719,31.7929764 101.820312,32.9518189 101.9375,33.7460938 C102.054688,34.5403686 102.230468,35.1393209 102.464844,35.5429688 C102.69922,35.9466166 103.031248,36.2851549 103.460938,36.5585938 C103.890627,36.8320326 104.483069,36.96875 105.238281,36.96875 C105.733075,36.96875 106.208331,36.8710947 106.664062,36.6757812 C107.119794,36.4804678 107.627601,36.1386743 108.1875,35.6503906 C108.747399,35.1621069 109.147785,34.6770857 109.388672,34.1953125 C109.629558,33.7135393 109.75,33.153649 109.75,32.515625 L109.75,25.1914062 C109.75,24.449215 109.730469,23.8893248 109.691406,23.5117188 C109.652344,23.1341127 109.58724,22.8313813 109.496094,22.6035156 C109.404947,22.3756499 109.297527,22.1901049 109.173828,22.046875 C109.05013,21.9036451 108.87435,21.7734381 108.646484,21.65625 C108.418619,21.5390619 108.050784,21.4153652 107.542969,21.2851562 L107.542969,20.328125 L113.109375,20.328125 L113.109375,33.6679688 C113.109375,34.6705779 113.128906,35.393227 113.167969,35.8359375 C113.207031,36.278648 113.291666,36.630207 113.421875,36.890625 C113.552084,37.151043 113.753905,37.3626294 114.027344,37.5253906 C114.300783,37.6881519 114.789059,37.8411451 115.492188,37.984375 L115.492188,39 L111.019531,39.1953125 L109.828125,39.1953125 L109.945312,35.9921875 L109.652344,35.9140625 C108.571609,37.0859434 107.539718,37.9453098 106.556641,38.4921875 C105.573563,39.0390652 104.587245,39.3125 103.597656,39.3125 C102.412754,39.3125 101.436202,39.0781273 100.667969,38.609375 C99.8997357,38.1406227 99.3268248,37.4407599 98.9492188,36.5097656 C98.5716127,35.5787714 98.3828125,34.2669355 98.3828125,32.5742188 L98.3828125,25.1914062 C98.3828125,24.0976508 98.3404952,23.3457052 98.2558594,22.9355469 C98.1712235,22.5253886 98.0084647,22.199871 97.7675781,21.9589844 C97.5266915,21.7180978 97.0026082,21.4934906 96.1953125,21.2851562 L96.1953125,20.328125 Z" id="Path" fill="#1B72BA"></path>
            <path d="M45.1875,44.0229492 C44.9977204,44.0766604 44.8688154,44.1348467 44.8007812,44.1975098 C44.7327471,44.2601728 44.6853029,44.3443191 44.6584473,44.4499512 C44.6315917,44.5555832 44.6181641,44.7426744 44.6181641,45.0112305 L44.6181641,49.6572266 C44.6181641,49.8756521 44.6289061,50.0484206 44.6503906,50.1755371 C44.6718751,50.3026536 44.7157386,50.3993324 44.7819824,50.4655762 C44.8482262,50.53182 44.9833974,50.5917966 45.1875,50.6455078 L45.1875,51 L42.4321289,51 L42.4321289,50.6455078 C42.5896818,50.6025388 42.6988929,50.5649416 42.7597656,50.5327148 C42.8206383,50.5004881 42.8680825,50.458415 42.9020996,50.4064941 C42.9361167,50.3545733 42.9611816,50.2757981 42.9772949,50.170166 C42.9934083,50.064534 43.0014648,49.8899752 43.0014648,49.6464844 L43.0014648,47.0146484 C43.0014648,46.7246079 43.0068359,46.3826517 43.0175781,45.9887695 C43.0283204,45.5948874 43.0390624,45.3155933 43.0498047,45.1508789 L42.9370117,45.1508789 C42.8940428,45.2941088 42.8483889,45.434651 42.8000488,45.5725098 C42.7517087,45.7103685 42.6612962,45.9565412 42.5288086,46.3110352 L41.0893555,50.1889648 L40.144043,50.1889648 L38.6293945,45.8330078 C38.5398759,45.5859363 38.4611006,45.3406588 38.3930664,45.097168 L38.2963867,45.097168 C38.3321942,45.6879912 38.3500977,46.3862264 38.3500977,47.1918945 L38.3500977,49.6625977 C38.3500977,49.9275729 38.3626301,50.1119786 38.3876953,50.2158203 C38.4127605,50.319662 38.4628902,50.4055986 38.5380859,50.4736328 C38.6132816,50.541667 38.7439769,50.5989581 38.9301758,50.6455078 L38.9301758,51 L36.8999023,51 L36.8999023,50.6455078 C37.03239,50.6097003 37.1371253,50.5703127 37.2141113,50.5273438 C37.2910974,50.4843748 37.3492837,50.4270837 37.3886719,50.3554688 C37.4280601,50.2838538 37.4522298,50.1925461 37.4611816,50.081543 C37.4701335,49.9705398 37.4746094,49.8291024 37.4746094,49.6572266 L37.4746094,45.0112305 C37.4746094,44.7390937 37.4629721,44.5528976 37.4396973,44.4526367 C37.4164224,44.3523758 37.3707686,44.2700199 37.3027344,44.2055664 C37.2347002,44.141113 37.1004242,44.0802412 36.8999023,44.0229492 L36.8999023,43.668457 L39.5693359,43.668457 L41.0571289,48.078125 L42.668457,43.668457 L45.1875,43.668457 L45.1875,44.0229492 Z M48.2060547,43.5288086 L48.2060547,44.8447266 L46.734375,44.8447266 L46.734375,43.5288086 L48.2060547,43.5288086 Z M46.1650391,50.6455078 C46.3404957,50.5989581 46.4613441,50.5380863 46.5275879,50.4628906 C46.5938317,50.3876949 46.6385904,50.2856452 46.6618652,50.1567383 C46.6851401,50.0278314 46.6967773,49.793296 46.6967773,49.453125 L46.6967773,46.9555664 C46.6967773,46.7801098 46.6887208,46.6386724 46.6726074,46.53125 C46.6564941,46.4238276 46.6260582,46.3378909 46.5812988,46.2734375 C46.5365395,46.2089841 46.4756677,46.1597495 46.3986816,46.1257324 C46.3216956,46.0917153 46.2223313,46.0621746 46.1005859,46.0371094 L46.1005859,45.671875 L47.5776367,45.6289062 L48.2490234,45.6289062 L48.2490234,49.4477539 C48.2490234,49.6482757 48.251709,49.8031407 48.2570801,49.9123535 C48.2624512,50.0215663 48.2705078,50.1057126 48.28125,50.1647949 C48.2919922,50.2238772 48.3072102,50.2766925 48.3269043,50.3232422 C48.3465984,50.3697919 48.3725584,50.4127602 48.4047852,50.4521484 C48.4370119,50.4915367 48.4835609,50.5273436 48.5444336,50.5595703 C48.6053063,50.591797 48.6858719,50.6204426 48.7861328,50.6455078 L48.7861328,51 L46.1650391,51 L46.1650391,50.6455078 Z M50.3222656,49.5498047 C50.4082036,49.8756527 50.5442699,50.120035 50.7304688,50.282959 C50.9166676,50.445883 51.1655258,50.5273438 51.4770508,50.5273438 C51.7456068,50.5273438 51.9488112,50.466472 52.0866699,50.3447266 C52.2245287,50.2229812 52.293457,50.0457368 52.293457,49.8129883 C52.293457,49.6661777 52.262126,49.5408534 52.1994629,49.4370117 C52.1367998,49.3331701 52.0329597,49.2338058 51.8879395,49.138916 C51.7429192,49.0440262 51.4949562,48.9195971 51.144043,48.765625 C50.9471019,48.6796871 50.761801,48.5847987 50.5881348,48.480957 C50.4144685,48.3771154 50.2631842,48.2598477 50.1342773,48.1291504 C50.0053704,47.9984531 49.9033207,47.8525399 49.828125,47.6914062 C49.7529293,47.5302726 49.715332,47.351238 49.715332,47.1542969 C49.715332,46.8320296 49.8084301,46.5527356 49.9946289,46.3164062 C50.1808278,46.0800769 50.4466942,45.8992519 50.7922363,45.7739258 C51.1377784,45.6485996 51.5325499,45.5859375 51.9765625,45.5859375 C52.237957,45.5859375 52.4939766,45.5966796 52.7446289,45.6181641 C52.9952812,45.6396485 53.319334,45.6861976 53.7167969,45.7578125 L53.7167969,47.0092773 L53.0078125,47.0092773 C52.9254553,46.7801095 52.8350428,46.6028652 52.7365723,46.4775391 C52.6381017,46.3522129 52.5297857,46.2653811 52.4116211,46.217041 C52.2934564,46.1687009 52.1520191,46.1445312 51.9873047,46.1445312 C51.7509754,46.1445312 51.562989,46.1982417 51.4233398,46.3056641 C51.2836907,46.4130865 51.2138672,46.5634756 51.2138672,46.7568359 C51.2138672,46.8929043 51.238932,47.0092769 51.2890625,47.105957 C51.339193,47.2026372 51.4287103,47.2966304 51.5576172,47.3879395 C51.6865241,47.4792485 51.9353823,47.6018873 52.3041992,47.7558594 C52.6407894,47.8955085 52.9147125,48.0414218 53.1259766,48.1936035 C53.3372406,48.3457853 53.4983718,48.5212392 53.609375,48.7199707 C53.7203782,48.9187022 53.7758789,49.1505521 53.7758789,49.4155273 C53.7758789,49.7055679 53.7221685,49.9553212 53.6147461,50.1647949 C53.5073237,50.3742686 53.3569346,50.5470371 53.1635742,50.6831055 C52.9702139,50.8191739 52.738364,50.9203284 52.4680176,50.9865723 C52.1976712,51.0528161 51.8995785,51.0859375 51.5737305,51.0859375 C50.9829072,51.0859375 50.32585,51.0017912 49.6025391,50.8334961 L49.6025391,49.5498047 L50.3222656,49.5498047 Z M55.3710938,49.5498047 C55.4570317,49.8756527 55.593098,50.120035 55.7792969,50.282959 C55.9654957,50.445883 56.2143539,50.5273438 56.5258789,50.5273438 C56.7944349,50.5273438 56.9976393,50.466472 57.135498,50.3447266 C57.2733568,50.2229812 57.3422852,50.0457368 57.3422852,49.8129883 C57.3422852,49.6661777 57.3109541,49.5408534 57.248291,49.4370117 C57.1856279,49.3331701 57.0817878,49.2338058 56.9367676,49.138916 C56.7917473,49.0440262 56.5437843,48.9195971 56.1928711,48.765625 C55.99593,48.6796871 55.8106291,48.5847987 55.6369629,48.480957 C55.4632967,48.3771154 55.3120124,48.2598477 55.1831055,48.1291504 C55.0541986,47.9984531 54.9521488,47.8525399 54.8769531,47.6914062 C54.8017574,47.5302726 54.7641602,47.351238 54.7641602,47.1542969 C54.7641602,46.8320296 54.8572582,46.5527356 55.043457,46.3164062 C55.2296559,46.0800769 55.4955224,45.8992519 55.8410645,45.7739258 C56.1866065,45.6485996 56.581378,45.5859375 57.0253906,45.5859375 C57.2867852,45.5859375 57.5428047,45.5966796 57.793457,45.6181641 C58.0441093,45.6396485 58.3681621,45.6861976 58.765625,45.7578125 L58.765625,47.0092773 L58.0566406,47.0092773 C57.9742834,46.7801095 57.8838709,46.6028652 57.7854004,46.4775391 C57.6869298,46.3522129 57.5786139,46.2653811 57.4604492,46.217041 C57.3422846,46.1687009 57.2008472,46.1445312 57.0361328,46.1445312 C56.7998035,46.1445312 56.6118171,46.1982417 56.472168,46.3056641 C56.3325188,46.4130865 56.2626953,46.5634756 56.2626953,46.7568359 C56.2626953,46.8929043 56.2877602,47.0092769 56.3378906,47.105957 C56.3880211,47.2026372 56.4775384,47.2966304 56.6064453,47.3879395 C56.7353522,47.4792485 56.9842104,47.6018873 57.3530273,47.7558594 C57.6896176,47.8955085 57.9635406,48.0414218 58.1748047,48.1936035 C58.3860688,48.3457853 58.5472,48.5212392 58.6582031,48.7199707 C58.7692063,48.9187022 58.824707,49.1505521 58.824707,49.4155273 C58.824707,49.7055679 58.7709966,49.9553212 58.6635742,50.1647949 C58.5561518,50.3742686 58.4057627,50.5470371 58.2124023,50.6831055 C58.019042,50.8191739 57.7871921,50.9203284 57.5168457,50.9865723 C57.2464993,51.0528161 56.9484066,51.0859375 56.6225586,51.0859375 C56.0317353,51.0859375 55.3746781,51.0017912 54.6513672,50.8334961 L54.6513672,49.5498047 L55.3710938,49.5498047 Z M61.7626953,43.5288086 L61.7626953,44.8447266 L60.2910156,44.8447266 L60.2910156,43.5288086 L61.7626953,43.5288086 Z M59.7216797,50.6455078 C59.8971363,50.5989581 60.0179847,50.5380863 60.0842285,50.4628906 C60.1504723,50.3876949 60.195231,50.2856452 60.2185059,50.1567383 C60.2417807,50.0278314 60.253418,49.793296 60.253418,49.453125 L60.253418,46.9555664 C60.253418,46.7801098 60.2453614,46.6386724 60.229248,46.53125 C60.2131347,46.4238276 60.1826988,46.3378909 60.1379395,46.2734375 C60.0931801,46.2089841 60.0323083,46.1597495 59.9553223,46.1257324 C59.8783362,46.0917153 59.778972,46.0621746 59.6572266,46.0371094 L59.6572266,45.671875 L61.1342773,45.6289062 L61.8056641,45.6289062 L61.8056641,49.4477539 C61.8056641,49.6482757 61.8083496,49.8031407 61.8137207,49.9123535 C61.8190918,50.0215663 61.8271484,50.1057126 61.8378906,50.1647949 C61.8486329,50.2238772 61.8638508,50.2766925 61.8835449,50.3232422 C61.903239,50.3697919 61.9291991,50.4127602 61.9614258,50.4521484 C61.9936525,50.4915367 62.0402015,50.5273436 62.1010742,50.5595703 C62.1619469,50.591797 62.2425125,50.6204426 62.3427734,50.6455078 L62.3427734,51 L59.7216797,51 L59.7216797,50.6455078 Z M65.7910156,51.0859375 C65.2646458,51.0859375 64.8107929,50.9937346 64.4294434,50.8093262 C64.0480938,50.6249177 63.7500011,50.3295105 63.5351562,49.9230957 C63.3203114,49.5166809 63.2128906,49.0001659 63.2128906,48.3735352 C63.2128906,47.893715 63.2791335,47.4783546 63.4116211,47.1274414 C63.5441087,46.7765282 63.7285144,46.486492 63.9648438,46.2573242 C64.2011731,46.0281564 64.4831527,45.8589686 64.810791,45.7497559 C65.1384294,45.6405431 65.4938132,45.5859375 65.8769531,45.5859375 C66.7434939,45.5859375 67.3969705,45.8142067 67.8374023,46.270752 C68.2778342,46.7272972 68.4980469,47.3959917 68.4980469,48.2768555 C68.4980469,48.8999055 68.3888357,49.4217915 68.1704102,49.8425293 C67.9519846,50.2632671 67.6404643,50.5756826 67.2358398,50.7797852 C66.8312154,50.9838877 66.3496122,51.0859375 65.7910156,51.0859375 Z M64.8457031,48.2553711 C64.8457031,49.0144895 64.9307446,49.5829245 65.1008301,49.9606934 C65.2709156,50.3384622 65.5278303,50.5273438 65.871582,50.5273438 C66.0613616,50.5273438 66.2198073,50.4790044 66.3469238,50.3823242 C66.4740403,50.285644 66.5760901,50.145997 66.6530762,49.9633789 C66.7300622,49.7807608 66.7846678,49.5614433 66.8168945,49.3054199 C66.8491213,49.0493965 66.8652344,48.7620459 66.8652344,48.4433594 C66.8652344,47.6734988 66.7801929,47.0979023 66.6101074,46.7165527 C66.4400219,46.3352032 66.1884782,46.1445312 65.8554688,46.1445312 C65.6119779,46.1445312 65.4168302,46.2215162 65.2700195,46.3754883 C65.1232089,46.5294604 65.0157881,46.7604151 64.9477539,47.0683594 C64.8797197,47.3763036 64.8457031,47.7719702 64.8457031,48.2553711 Z M75.2871094,51 L72.6821289,51 L72.6821289,50.6455078 C72.8468433,50.6061196 72.9614255,50.5479333 73.0258789,50.4709473 C73.0903324,50.3939612 73.1341958,50.2901211 73.1574707,50.1594238 C73.1807456,50.0287266 73.1923828,49.793296 73.1923828,49.453125 L73.1923828,48.019043 C73.1923828,47.7648099 73.1870118,47.5562345 73.1762695,47.3933105 C73.1655273,47.2303866 73.148519,47.0970057 73.1252441,46.9931641 C73.1019693,46.8893224 73.069743,46.8024906 73.0285645,46.732666 C72.9873859,46.6628414 72.941732,46.6055504 72.8916016,46.560791 C72.8414711,46.5160317 72.78418,46.4829103 72.7197266,46.4614258 C72.6552731,46.4399413 72.5729172,46.4291992 72.4726562,46.4291992 C72.3365879,46.4291992 72.1951505,46.4712724 72.0483398,46.5554199 C71.9015292,46.6395675 71.7779953,46.75594 71.6777344,46.904541 C71.5774735,47.053142 71.5273438,47.2115877 71.5273438,47.3798828 L71.5273438,49.4477539 C71.5273438,49.7879249 71.5380858,50.0242506 71.5595703,50.1567383 C71.5810548,50.2892259 71.6249183,50.3939612 71.6911621,50.4709473 C71.7574059,50.5479333 71.8746736,50.6061196 72.0429688,50.6455078 L72.0429688,51 L69.4487305,51 L69.4487305,50.6455078 C69.6206063,50.5989581 69.7396644,50.5380863 69.8059082,50.4628906 C69.872152,50.3876949 69.9169107,50.2856452 69.9401855,50.1567383 C69.9634604,50.0278314 69.9750977,49.793296 69.9750977,49.453125 L69.9750977,47.2456055 C69.9750977,46.9806302 69.9706218,46.7845872 69.9616699,46.6574707 C69.9527181,46.5303542 69.9312339,46.4283044 69.8972168,46.3513184 C69.8631997,46.2743323 69.8112796,46.2116702 69.7414551,46.1633301 C69.6716305,46.11499 69.5507821,46.0729168 69.3789062,46.0371094 L69.3789062,45.671875 L70.8505859,45.6289062 L71.5273438,45.6289062 L71.4467773,46.4023438 L71.5112305,46.418457 C71.7332368,46.2215159 71.9283846,46.066651 72.0966797,45.9538574 C72.2649748,45.8410639 72.4413239,45.7515466 72.6257324,45.6853027 C72.8101409,45.6190589 73.0043935,45.5859375 73.2084961,45.5859375 C73.5021174,45.5859375 73.7456045,45.6280106 73.9389648,45.7121582 C74.1323252,45.7963058 74.2889805,45.9189445 74.4089355,46.0800781 C74.5288906,46.2412117 74.6148272,46.4381499 74.666748,46.6708984 C74.7186689,46.903647 74.7446289,47.1739893 74.7446289,47.4819336 L74.7446289,49.4477539 C74.7446289,49.6053068 74.7473144,49.7530104 74.7526855,49.8908691 C74.7580567,50.0287279 74.7714843,50.1388342 74.7929688,50.2211914 C74.8144532,50.3035486 74.843994,50.3706866 74.8815918,50.4226074 C74.9191896,50.4745283 74.9720049,50.5183917 75.0400391,50.5541992 C75.1080733,50.5900067 75.1904292,50.6204426 75.2871094,50.6455078 L75.2871094,51 Z M83.8969727,43.8349609 L83.8969727,45.3925781 L83.1665039,45.3925781 C83.080566,44.9879537 82.9444996,44.689861 82.7583008,44.498291 C82.5721019,44.306721 82.3286148,44.2109375 82.027832,44.2109375 C81.462074,44.2109375 81.0341811,44.482175 80.7441406,45.0246582 C80.4541001,45.5671414 80.309082,46.3719022 80.309082,47.4389648 C80.309082,48.4308318 80.4415677,49.1818822 80.706543,49.6921387 C80.9715183,50.2023951 81.3600235,50.4575195 81.8720703,50.4575195 C82.1334648,50.4575195 82.3465161,50.413656 82.5112305,50.3259277 C82.6759448,50.2381994 82.8075353,50.106609 82.9060059,49.9311523 C83.0044764,49.7556957 83.0895179,49.5086279 83.1611328,49.1899414 L83.8969727,49.1899414 L83.8969727,50.8173828 C83.5030905,50.9104822 83.1432308,50.9785154 82.8173828,51.0214844 C82.4915348,51.0644533 82.1531593,51.0859375 81.8022461,51.0859375 C81.0574507,51.0859375 80.449628,50.9516615 79.9787598,50.6831055 C79.5078915,50.4145494 79.1605643,50.0090359 78.9367676,49.4665527 C78.7129709,48.9240696 78.6010742,48.2374716 78.6010742,47.4067383 C78.6010742,46.6297162 78.7326647,45.9538603 78.9958496,45.3791504 C79.2590345,44.8044405 79.6466446,44.3613297 80.1586914,44.0498047 C80.6707382,43.7382797 81.2830368,43.5825195 81.9956055,43.5825195 C82.3572609,43.5825195 82.6848944,43.6022133 82.9785156,43.6416016 C83.2721369,43.6809898 83.5782862,43.7454423 83.8969727,43.8349609 Z M87.4204102,51.0859375 C86.8940403,51.0859375 86.4401875,50.9937346 86.0588379,50.8093262 C85.6774883,50.6249177 85.3793956,50.3295105 85.1645508,49.9230957 C84.949706,49.5166809 84.8422852,49.0001659 84.8422852,48.3735352 C84.8422852,47.893715 84.908528,47.4783546 85.0410156,47.1274414 C85.1735033,46.7765282 85.357909,46.486492 85.5942383,46.2573242 C85.8305676,46.0281564 86.1125472,45.8589686 86.4401855,45.7497559 C86.7678239,45.6405431 87.1232077,45.5859375 87.5063477,45.5859375 C88.3728884,45.5859375 89.026365,45.8142067 89.4667969,46.270752 C89.9072288,46.7272972 90.1274414,47.3959917 90.1274414,48.2768555 C90.1274414,48.8999055 90.0182303,49.4217915 89.7998047,49.8425293 C89.5813791,50.2632671 89.2698588,50.5756826 88.8652344,50.7797852 C88.46061,50.9838877 87.9790067,51.0859375 87.4204102,51.0859375 Z M86.4750977,48.2553711 C86.4750977,49.0144895 86.5601391,49.5829245 86.7302246,49.9606934 C86.9003101,50.3384622 87.1572248,50.5273438 87.5009766,50.5273438 C87.6907562,50.5273438 87.8492018,50.4790044 87.9763184,50.3823242 C88.1034349,50.285644 88.2054846,50.145997 88.2824707,49.9633789 C88.3594568,49.7807608 88.4140623,49.5614433 88.4462891,49.3054199 C88.4785158,49.0493965 88.4946289,48.7620459 88.4946289,48.4433594 C88.4946289,47.6734988 88.4095874,47.0979023 88.239502,46.7165527 C88.0694165,46.3352032 87.8178728,46.1445312 87.4848633,46.1445312 C87.2413725,46.1445312 87.0462247,46.2215162 86.8994141,46.3754883 C86.7526034,46.5294604 86.6451826,46.7604151 86.5771484,47.0683594 C86.5091142,47.3763036 86.4750977,47.7719702 86.4750977,48.2553711 Z M96.9165039,51 L94.3115234,51 L94.3115234,50.6455078 C94.4762378,50.6061196 94.59082,50.5479333 94.6552734,50.4709473 C94.7197269,50.3939612 94.7635904,50.2901211 94.7868652,50.1594238 C94.8101401,50.0287266 94.8217773,49.793296 94.8217773,49.453125 L94.8217773,48.019043 C94.8217773,47.7648099 94.8164063,47.5562345 94.8056641,47.3933105 C94.7949218,47.2303866 94.7779135,47.0970057 94.7546387,46.9931641 C94.7313638,46.8893224 94.6991376,46.8024906 94.657959,46.732666 C94.6167804,46.6628414 94.5711266,46.6055504 94.5209961,46.560791 C94.4708656,46.5160317 94.4135745,46.4829103 94.3491211,46.4614258 C94.2846676,46.4399413 94.2023117,46.4291992 94.1020508,46.4291992 C93.9659824,46.4291992 93.824545,46.4712724 93.6777344,46.5554199 C93.5309237,46.6395675 93.4073898,46.75594 93.3071289,46.904541 C93.206868,47.053142 93.1567383,47.2115877 93.1567383,47.3798828 L93.1567383,49.4477539 C93.1567383,49.7879249 93.1674804,50.0242506 93.1889648,50.1567383 C93.2104493,50.2892259 93.2543128,50.3939612 93.3205566,50.4709473 C93.3868005,50.5479333 93.5040682,50.6061196 93.6723633,50.6455078 L93.6723633,51 L91.078125,51 L91.078125,50.6455078 C91.2500009,50.5989581 91.3690589,50.5380863 91.4353027,50.4628906 C91.5015466,50.3876949 91.5463052,50.2856452 91.5695801,50.1567383 C91.5928549,50.0278314 91.6044922,49.793296 91.6044922,49.453125 L91.6044922,47.2456055 C91.6044922,46.9806302 91.6000163,46.7845872 91.5910645,46.6574707 C91.5821126,46.5303542 91.5606284,46.4283044 91.5266113,46.3513184 C91.4925942,46.2743323 91.4406742,46.2116702 91.3708496,46.1633301 C91.301025,46.11499 91.1801766,46.0729168 91.0083008,46.0371094 L91.0083008,45.671875 L92.4799805,45.6289062 L93.1567383,45.6289062 L93.0761719,46.4023438 L93.140625,46.418457 C93.3626313,46.2215159 93.5577791,46.066651 93.7260742,45.9538574 C93.8943693,45.8410639 94.0707185,45.7515466 94.255127,45.6853027 C94.4395354,45.6190589 94.633788,45.5859375 94.8378906,45.5859375 C95.1315119,45.5859375 95.374999,45.6280106 95.5683594,45.7121582 C95.7617197,45.7963058 95.9183751,45.9189445 96.0383301,46.0800781 C96.1582851,46.2412117 96.2442217,46.4381499 96.2961426,46.6708984 C96.3480634,46.903647 96.3740234,47.1739893 96.3740234,47.4819336 L96.3740234,49.4477539 C96.3740234,49.6053068 96.376709,49.7530104 96.3820801,49.8908691 C96.3874512,50.0287279 96.4008788,50.1388342 96.4223633,50.2211914 C96.4438478,50.3035486 96.4733885,50.3706866 96.5109863,50.4226074 C96.5485842,50.4745283 96.6013994,50.5183917 96.6694336,50.5541992 C96.7374678,50.5900067 96.8198237,50.6204426 96.9165039,50.6455078 L96.9165039,51 Z M101.390625,50.3554688 C101.075519,50.6240248 100.789064,50.8129064 100.53125,50.9221191 C100.273436,51.0313319 100.001304,51.0859375 99.7148438,51.0859375 C99.1813124,51.0859375 98.7829603,50.9418146 98.5197754,50.6535645 C98.2565905,50.3653143 98.125,49.9293649 98.125,49.3457031 L98.125,46.3432617 L97.4536133,46.3432617 L97.4536133,45.9726562 C97.6720389,45.9368488 97.8331701,45.8831384 97.9370117,45.8115234 C98.0408534,45.7399085 98.121419,45.6441249 98.1787109,45.5241699 C98.2360029,45.4042149 98.2816567,45.2475596 98.3156738,45.0541992 C98.3496909,44.8608389 98.375651,44.6191421 98.3935547,44.3291016 L99.6772461,44.3291016 L99.6772461,45.671875 L101.208008,45.671875 L101.208008,46.3432617 L99.6772461,46.3432617 L99.6772461,48.765625 C99.6772461,49.1702494 99.6960447,49.4692373 99.7336426,49.6625977 C99.7712404,49.855958 99.8347977,49.9982906 99.9243164,50.0895996 C100.013835,50.1809087 100.124837,50.2265625 100.257324,50.2265625 C100.357585,50.2265625 100.447102,50.2176108 100.525879,50.199707 C100.604655,50.1818033 100.687906,50.1495771 100.775635,50.1030273 C100.863363,50.0564776 100.955566,49.9902348 101.052246,49.9042969 L101.390625,50.3554688 Z M103.737793,46.4399414 L103.807617,46.4560547 C104.069012,46.1481104 104.337564,45.9261075 104.613281,45.7900391 C104.888999,45.6539707 105.187987,45.5859375 105.510254,45.5859375 C105.728679,45.5859375 105.957844,45.609212 106.197754,45.6557617 L106.197754,47.1381836 L105.225586,47.1381836 C105.164713,46.9305003 105.085043,46.7711594 104.986572,46.6601562 C104.888102,46.5491531 104.756511,46.4936523 104.591797,46.4936523 C104.51302,46.4936523 104.426189,46.517822 104.331299,46.5661621 C104.236409,46.6145022 104.148682,46.6825354 104.068115,46.7702637 C103.987548,46.857992 103.930257,46.9475093 103.89624,47.0388184 C103.862223,47.1301274 103.839844,47.2223303 103.829102,47.3154297 C103.818359,47.4085291 103.812988,47.5481762 103.812988,47.734375 L103.812988,49.4477539 C103.812988,49.7879249 103.825521,50.026041 103.850586,50.1621094 C103.875651,50.2981778 103.925781,50.4047034 104.000977,50.4816895 C104.076172,50.5586755 104.203287,50.6132811 104.382324,50.6455078 L104.382324,51 L101.734375,51 L101.734375,50.6455078 C101.906251,50.5989581 102.025309,50.5380863 102.091553,50.4628906 C102.157797,50.3876949 102.202555,50.2856452 102.22583,50.1567383 C102.249105,50.0278314 102.260742,49.793296 102.260742,49.453125 L102.260742,47.2456055 C102.260742,46.9806302 102.256266,46.7845872 102.247314,46.6574707 C102.238363,46.5303542 102.216878,46.4283044 102.182861,46.3513184 C102.148844,46.2743323 102.096924,46.2116702 102.0271,46.1633301 C101.957275,46.11499 101.836427,46.0729168 101.664551,46.0371094 L101.664551,45.671875 L103.13623,45.6289062 L103.812988,45.6289062 L103.737793,46.4399414 Z M109.415039,51.0859375 C108.888669,51.0859375 108.434816,50.9937346 108.053467,50.8093262 C107.672117,50.6249177 107.374025,50.3295105 107.15918,49.9230957 C106.944335,49.5166809 106.836914,49.0001659 106.836914,48.3735352 C106.836914,47.893715 106.903157,47.4783546 107.035645,47.1274414 C107.168132,46.7765282 107.352538,46.486492 107.588867,46.2573242 C107.825196,46.0281564 108.107176,45.8589686 108.434814,45.7497559 C108.762453,45.6405431 109.117837,45.5859375 109.500977,45.5859375 C110.367517,45.5859375 111.020994,45.8142067 111.461426,46.270752 C111.901858,46.7272972 112.12207,47.3959917 112.12207,48.2768555 C112.12207,48.8999055 112.012859,49.4217915 111.794434,49.8425293 C111.576008,50.2632671 111.264488,50.5756826 110.859863,50.7797852 C110.455239,50.9838877 109.973636,51.0859375 109.415039,51.0859375 Z M108.469727,48.2553711 C108.469727,49.0144895 108.554768,49.5829245 108.724854,49.9606934 C108.894939,50.3384622 109.151854,50.5273438 109.495605,50.5273438 C109.685385,50.5273438 109.843831,50.4790044 109.970947,50.3823242 C110.098064,50.285644 110.200114,50.145997 110.2771,49.9633789 C110.354086,49.7807608 110.408691,49.5614433 110.440918,49.3054199 C110.473145,49.0493965 110.489258,48.7620459 110.489258,48.4433594 C110.489258,47.6734988 110.404216,47.0979023 110.234131,46.7165527 C110.064045,46.3352032 109.812502,46.1445312 109.479492,46.1445312 C109.236001,46.1445312 109.040854,46.2215162 108.894043,46.3754883 C108.747232,46.5294604 108.639812,46.7604151 108.571777,47.0683594 C108.503743,47.3763036 108.469727,47.7719702 108.469727,48.2553711 Z M115.081543,49.4477539 C115.081543,49.7879249 115.092285,50.0224603 115.11377,50.1513672 C115.135254,50.2802741 115.179118,50.383219 115.245361,50.4602051 C115.311605,50.5371911 115.436034,50.5989581 115.618652,50.6455078 L115.618652,51 L112.986816,51 L112.986816,50.6455078 C113.094239,50.6204426 113.178385,50.5909019 113.239258,50.5568848 C113.300131,50.5228677 113.347575,50.48348 113.381592,50.4387207 C113.415609,50.3939614 113.44515,50.3366703 113.470215,50.2668457 C113.49528,50.1970211 113.511393,50.1003424 113.518555,49.9768066 C113.525716,49.8532709 113.529297,49.6769217 113.529297,49.4477539 L113.529297,45.2583008 C113.529297,44.9503565 113.526611,44.7238777 113.52124,44.5788574 C113.515869,44.4338372 113.505127,44.3120936 113.489014,44.213623 C113.4729,44.1151525 113.446045,44.0363772 113.408447,43.9772949 C113.370849,43.9182126 113.318034,43.8707684 113.25,43.8349609 C113.181966,43.7991535 113.072755,43.7669272 112.922363,43.7382812 L112.922363,43.3837891 L114.410156,43.3085938 L115.081543,43.3085938 L115.081543,49.4477539 Z" id="Mission-Control" fill="#4A4A4A"></path>
        </g>
    </g>
</svg>