<svg xmlns="http://www.w3.org/2000/svg" width="21" height="21" viewBox="0 0 10 16">
    <g fill="none" fill-rule="evenodd">
        <g fill="#FFF">
            <g>
                <path d="M0 10.157c0 2.713 2.157 4.87 4.87 4.87s4.87-2.157 4.87-4.87V7.374H0v2.783zm7.722-8.07l1.46-1.46L8.627.07l-1.6 1.6c-.626-.348-1.391-.557-2.156-.557-.766 0-1.53.209-2.157.487L1.113 0 .557.626l1.46 1.461C.765 2.922 0 4.383 0 5.983v.695h9.74v-.695c0-1.6-.766-3.061-2.018-3.896zm-4.94 3.2c-.417 0-.695-.278-.695-.696 0-.417.278-.695.696-.695.417 0 .695.278.695.695 0 .418-.278.696-.695.696zm4.175 0c-.418 0-.696-.278-.696-.696 0-.417.278-.695.696-.695.417 0 .695.278.695.695 0 .418-.278.696-.695.696z" transform="translate(-25 -772) translate(25 772)"/>
            </g>
        </g>
    </g>
</svg>
